<mxfile host="www.draw.io" modified="2019-12-18T00:15:58.157Z" agent="Mozilla/5.0 (Windows NT 10.0; Win64; x64) AppleWebKit/537.36 (KHTML, like Gecko) Chrome/78.0.3904.108 Safari/537.36" etag="dK9Xr7AYyMZ5yrC81Azf" version="12.4.2" type="github" pages="1">
  <diagram id="xO83vz71swdTEDcRIiK-" name="Page-1">
    <mxGraphModel dx="6886" dy="1078" grid="1" gridSize="10" guides="1" tooltips="1" connect="1" arrows="1" fold="1" page="1" pageScale="1" pageWidth="827" pageHeight="1169" math="0" shadow="0">
      <root>
        <mxCell id="0"/>
        <mxCell id="1" parent="0"/>
        <mxCell id="SLmvfLO-0fDUO9Z2AGR4-6" style="edgeStyle=orthogonalEdgeStyle;rounded=0;orthogonalLoop=1;jettySize=auto;html=1;entryX=0.5;entryY=0;entryDx=0;entryDy=0;exitX=0.5;exitY=1;exitDx=0;exitDy=0;" parent="1" source="SLmvfLO-0fDUO9Z2AGR4-1" target="SLmvfLO-0fDUO9Z2AGR4-5" edge="1">
          <mxGeometry relative="1" as="geometry">
            <mxPoint x="650" y="510" as="sourcePoint"/>
            <Array as="points">
              <mxPoint x="381" y="340"/>
              <mxPoint x="3041" y="340"/>
            </Array>
          </mxGeometry>
        </mxCell>
        <mxCell id="SLmvfLO-0fDUO9Z2AGR4-7" style="edgeStyle=orthogonalEdgeStyle;rounded=0;orthogonalLoop=1;jettySize=auto;html=1;exitX=0.5;exitY=1;exitDx=0;exitDy=0;entryX=0.5;entryY=0;entryDx=0;entryDy=0;" parent="1" source="SLmvfLO-0fDUO9Z2AGR4-1" target="SLmvfLO-0fDUO9Z2AGR4-4" edge="1">
          <mxGeometry relative="1" as="geometry">
            <Array as="points">
              <mxPoint x="381" y="340"/>
              <mxPoint x="1281" y="340"/>
            </Array>
          </mxGeometry>
        </mxCell>
        <mxCell id="SLmvfLO-0fDUO9Z2AGR4-8" style="edgeStyle=orthogonalEdgeStyle;rounded=0;orthogonalLoop=1;jettySize=auto;html=1;exitX=0.5;exitY=1;exitDx=0;exitDy=0;entryX=0.5;entryY=0;entryDx=0;entryDy=0;" parent="1" source="SLmvfLO-0fDUO9Z2AGR4-1" target="SLmvfLO-0fDUO9Z2AGR4-3" edge="1">
          <mxGeometry relative="1" as="geometry">
            <Array as="points">
              <mxPoint x="380" y="340"/>
              <mxPoint x="-340" y="340"/>
            </Array>
          </mxGeometry>
        </mxCell>
        <mxCell id="SLmvfLO-0fDUO9Z2AGR4-9" style="edgeStyle=orthogonalEdgeStyle;rounded=0;orthogonalLoop=1;jettySize=auto;html=1;exitX=0.5;exitY=1;exitDx=0;exitDy=0;entryX=0.5;entryY=0;entryDx=0;entryDy=0;" parent="1" source="SLmvfLO-0fDUO9Z2AGR4-1" target="SLmvfLO-0fDUO9Z2AGR4-2" edge="1">
          <mxGeometry relative="1" as="geometry">
            <Array as="points">
              <mxPoint x="381" y="260"/>
              <mxPoint x="381" y="340"/>
              <mxPoint x="250" y="340"/>
            </Array>
          </mxGeometry>
        </mxCell>
        <mxCell id="SLmvfLO-0fDUO9Z2AGR4-1" value="CHAOS" style="rounded=0;whiteSpace=wrap;html=1;" parent="1" vertex="1">
          <mxGeometry x="320" y="200" width="120" height="60" as="geometry"/>
        </mxCell>
        <mxCell id="SLmvfLO-0fDUO9Z2AGR4-146" style="edgeStyle=orthogonalEdgeStyle;rounded=0;orthogonalLoop=1;jettySize=auto;html=1;exitX=0;exitY=0.5;exitDx=0;exitDy=0;entryX=0.5;entryY=0;entryDx=0;entryDy=0;startArrow=diamond;startFill=1;endArrow=classic;endFill=1;" parent="1" source="SLmvfLO-0fDUO9Z2AGR4-2" target="SLmvfLO-0fDUO9Z2AGR4-144" edge="1">
          <mxGeometry relative="1" as="geometry">
            <Array as="points">
              <mxPoint x="100" y="430"/>
              <mxPoint x="100" y="500"/>
              <mxPoint x="190" y="500"/>
            </Array>
          </mxGeometry>
        </mxCell>
        <mxCell id="SLmvfLO-0fDUO9Z2AGR4-2" value="TARTARUS&lt;br&gt;(depths &amp;amp; caves beneath earth)" style="rounded=0;whiteSpace=wrap;html=1;fillColor=#d5e8d4;strokeColor=#82b366;" parent="1" vertex="1">
          <mxGeometry x="190" y="400" width="120" height="60" as="geometry"/>
        </mxCell>
        <mxCell id="SLmvfLO-0fDUO9Z2AGR4-12" style="edgeStyle=orthogonalEdgeStyle;rounded=0;orthogonalLoop=1;jettySize=auto;html=1;exitX=0.5;exitY=1;exitDx=0;exitDy=0;" parent="1" source="SLmvfLO-0fDUO9Z2AGR4-3" target="SLmvfLO-0fDUO9Z2AGR4-11" edge="1">
          <mxGeometry relative="1" as="geometry">
            <Array as="points">
              <mxPoint x="-340" y="500"/>
              <mxPoint x="-178" y="500"/>
            </Array>
          </mxGeometry>
        </mxCell>
        <mxCell id="SLmvfLO-0fDUO9Z2AGR4-13" style="edgeStyle=orthogonalEdgeStyle;rounded=0;orthogonalLoop=1;jettySize=auto;html=1;exitX=0.5;exitY=1;exitDx=0;exitDy=0;entryX=0.5;entryY=0;entryDx=0;entryDy=0;" parent="1" source="SLmvfLO-0fDUO9Z2AGR4-3" target="SLmvfLO-0fDUO9Z2AGR4-10" edge="1">
          <mxGeometry relative="1" as="geometry">
            <Array as="points">
              <mxPoint x="-340" y="500"/>
              <mxPoint x="-460" y="500"/>
            </Array>
          </mxGeometry>
        </mxCell>
        <mxCell id="SLmvfLO-0fDUO9Z2AGR4-58" style="edgeStyle=orthogonalEdgeStyle;rounded=0;orthogonalLoop=1;jettySize=auto;html=1;exitX=0;exitY=0.5;exitDx=0;exitDy=0;entryX=0;entryY=0.5;entryDx=0;entryDy=0;startArrow=diamond;startFill=1;endArrow=diamond;endFill=1;" parent="1" source="SLmvfLO-0fDUO9Z2AGR4-3" target="SLmvfLO-0fDUO9Z2AGR4-10" edge="1">
          <mxGeometry relative="1" as="geometry">
            <Array as="points">
              <mxPoint x="-980" y="430"/>
              <mxPoint x="-980" y="607"/>
            </Array>
          </mxGeometry>
        </mxCell>
        <mxCell id="SLmvfLO-0fDUO9Z2AGR4-99" style="edgeStyle=orthogonalEdgeStyle;rounded=0;orthogonalLoop=1;jettySize=auto;html=1;exitX=0;exitY=0.5;exitDx=0;exitDy=0;entryX=0;entryY=0.5;entryDx=0;entryDy=0;startArrow=diamond;startFill=1;endArrow=diamond;endFill=1;" parent="1" source="SLmvfLO-0fDUO9Z2AGR4-3" target="SLmvfLO-0fDUO9Z2AGR4-62" edge="1">
          <mxGeometry relative="1" as="geometry">
            <Array as="points">
              <mxPoint x="-4159" y="432"/>
              <mxPoint x="-4159" y="792"/>
            </Array>
          </mxGeometry>
        </mxCell>
        <mxCell id="SLmvfLO-0fDUO9Z2AGR4-100" style="edgeStyle=orthogonalEdgeStyle;rounded=0;orthogonalLoop=1;jettySize=auto;html=1;entryX=1;entryY=0.5;entryDx=0;entryDy=0;endArrow=diamond;endFill=1;startArrow=diamond;startFill=1;exitX=1;exitY=0.75;exitDx=0;exitDy=0;" parent="1" source="SLmvfLO-0fDUO9Z2AGR4-3" target="SLmvfLO-0fDUO9Z2AGR4-11" edge="1">
          <mxGeometry relative="1" as="geometry">
            <mxPoint x="23" y="430" as="sourcePoint"/>
            <Array as="points">
              <mxPoint x="60" y="445"/>
              <mxPoint x="60" y="609"/>
            </Array>
          </mxGeometry>
        </mxCell>
        <mxCell id="SLmvfLO-0fDUO9Z2AGR4-145" style="edgeStyle=orthogonalEdgeStyle;rounded=0;orthogonalLoop=1;jettySize=auto;html=1;exitX=1;exitY=0.5;exitDx=0;exitDy=0;entryX=0.5;entryY=0;entryDx=0;entryDy=0;startArrow=diamond;startFill=1;endArrow=classic;endFill=1;" parent="1" source="SLmvfLO-0fDUO9Z2AGR4-3" target="SLmvfLO-0fDUO9Z2AGR4-144" edge="1">
          <mxGeometry relative="1" as="geometry">
            <Array as="points">
              <mxPoint x="100" y="430"/>
              <mxPoint x="100" y="500"/>
              <mxPoint x="190" y="500"/>
            </Array>
          </mxGeometry>
        </mxCell>
        <mxCell id="SLmvfLO-0fDUO9Z2AGR4-3" value="GAIA&lt;br&gt;(earth)" style="rounded=0;whiteSpace=wrap;html=1;fillColor=#fff2cc;strokeColor=#d6b656;" parent="1" vertex="1">
          <mxGeometry x="-400" y="400" width="120" height="60" as="geometry"/>
        </mxCell>
        <mxCell id="SLmvfLO-0fDUO9Z2AGR4-40" style="edgeStyle=orthogonalEdgeStyle;rounded=0;orthogonalLoop=1;jettySize=auto;html=1;exitX=1;exitY=0.5;exitDx=0;exitDy=0;entryX=0.5;entryY=0;entryDx=0;entryDy=0;" parent="1" source="SLmvfLO-0fDUO9Z2AGR4-4" target="SLmvfLO-0fDUO9Z2AGR4-15" edge="1">
          <mxGeometry relative="1" as="geometry">
            <Array as="points">
              <mxPoint x="2141" y="430"/>
              <mxPoint x="2141" y="500"/>
              <mxPoint x="711" y="500"/>
            </Array>
          </mxGeometry>
        </mxCell>
        <mxCell id="SLmvfLO-0fDUO9Z2AGR4-41" style="edgeStyle=orthogonalEdgeStyle;rounded=0;orthogonalLoop=1;jettySize=auto;html=1;exitX=1;exitY=0.5;exitDx=0;exitDy=0;entryX=0.5;entryY=0;entryDx=0;entryDy=0;" parent="1" source="SLmvfLO-0fDUO9Z2AGR4-4" target="SLmvfLO-0fDUO9Z2AGR4-16" edge="1">
          <mxGeometry relative="1" as="geometry">
            <Array as="points">
              <mxPoint x="2141" y="430"/>
              <mxPoint x="2141" y="500"/>
              <mxPoint x="881" y="500"/>
            </Array>
          </mxGeometry>
        </mxCell>
        <mxCell id="SLmvfLO-0fDUO9Z2AGR4-42" style="edgeStyle=orthogonalEdgeStyle;rounded=0;orthogonalLoop=1;jettySize=auto;html=1;exitX=1;exitY=0.5;exitDx=0;exitDy=0;entryX=0.5;entryY=0;entryDx=0;entryDy=0;" parent="1" source="SLmvfLO-0fDUO9Z2AGR4-4" target="SLmvfLO-0fDUO9Z2AGR4-17" edge="1">
          <mxGeometry relative="1" as="geometry">
            <Array as="points">
              <mxPoint x="2141" y="430"/>
              <mxPoint x="2141" y="500"/>
              <mxPoint x="1061" y="500"/>
            </Array>
          </mxGeometry>
        </mxCell>
        <mxCell id="SLmvfLO-0fDUO9Z2AGR4-43" style="edgeStyle=orthogonalEdgeStyle;rounded=0;orthogonalLoop=1;jettySize=auto;html=1;exitX=1;exitY=0.5;exitDx=0;exitDy=0;" parent="1" source="SLmvfLO-0fDUO9Z2AGR4-4" target="SLmvfLO-0fDUO9Z2AGR4-18" edge="1">
          <mxGeometry relative="1" as="geometry">
            <Array as="points">
              <mxPoint x="2141" y="430"/>
              <mxPoint x="2141" y="500"/>
              <mxPoint x="1241" y="500"/>
            </Array>
          </mxGeometry>
        </mxCell>
        <mxCell id="SLmvfLO-0fDUO9Z2AGR4-44" style="edgeStyle=orthogonalEdgeStyle;rounded=0;orthogonalLoop=1;jettySize=auto;html=1;exitX=1;exitY=0.5;exitDx=0;exitDy=0;" parent="1" source="SLmvfLO-0fDUO9Z2AGR4-4" target="SLmvfLO-0fDUO9Z2AGR4-19" edge="1">
          <mxGeometry relative="1" as="geometry">
            <Array as="points">
              <mxPoint x="2141" y="430"/>
              <mxPoint x="2141" y="500"/>
              <mxPoint x="1431" y="500"/>
            </Array>
          </mxGeometry>
        </mxCell>
        <mxCell id="SLmvfLO-0fDUO9Z2AGR4-45" style="edgeStyle=orthogonalEdgeStyle;rounded=0;orthogonalLoop=1;jettySize=auto;html=1;exitX=1;exitY=0.5;exitDx=0;exitDy=0;entryX=0.5;entryY=0;entryDx=0;entryDy=0;" parent="1" source="SLmvfLO-0fDUO9Z2AGR4-4" target="SLmvfLO-0fDUO9Z2AGR4-20" edge="1">
          <mxGeometry relative="1" as="geometry">
            <Array as="points">
              <mxPoint x="2140" y="430"/>
              <mxPoint x="2140" y="500"/>
              <mxPoint x="1730" y="500"/>
              <mxPoint x="1730" y="550"/>
              <mxPoint x="1630" y="550"/>
            </Array>
          </mxGeometry>
        </mxCell>
        <mxCell id="SLmvfLO-0fDUO9Z2AGR4-51" style="edgeStyle=orthogonalEdgeStyle;rounded=0;orthogonalLoop=1;jettySize=auto;html=1;exitX=1;exitY=0.5;exitDx=0;exitDy=0;entryX=0.5;entryY=0;entryDx=0;entryDy=0;startArrow=diamond;startFill=1;" parent="1" source="SLmvfLO-0fDUO9Z2AGR4-4" target="SLmvfLO-0fDUO9Z2AGR4-14" edge="1">
          <mxGeometry relative="1" as="geometry">
            <Array as="points">
              <mxPoint x="2141" y="430"/>
              <mxPoint x="2141" y="500"/>
              <mxPoint x="501" y="500"/>
            </Array>
          </mxGeometry>
        </mxCell>
        <mxCell id="SLmvfLO-0fDUO9Z2AGR4-4" value="EREBUS&lt;br&gt;(darkness)" style="rounded=0;whiteSpace=wrap;html=1;fillColor=#d5e8d4;strokeColor=#82b366;" parent="1" vertex="1">
          <mxGeometry x="1220" y="400" width="120" height="60" as="geometry"/>
        </mxCell>
        <mxCell id="SLmvfLO-0fDUO9Z2AGR4-31" style="edgeStyle=orthogonalEdgeStyle;rounded=0;orthogonalLoop=1;jettySize=auto;html=1;exitX=0.5;exitY=1;exitDx=0;exitDy=0;entryX=0.5;entryY=0;entryDx=0;entryDy=0;" parent="1" source="SLmvfLO-0fDUO9Z2AGR4-5" target="SLmvfLO-0fDUO9Z2AGR4-26" edge="1">
          <mxGeometry relative="1" as="geometry">
            <Array as="points">
              <mxPoint x="3040" y="510"/>
              <mxPoint x="2710" y="510"/>
            </Array>
          </mxGeometry>
        </mxCell>
        <mxCell id="SLmvfLO-0fDUO9Z2AGR4-32" style="edgeStyle=orthogonalEdgeStyle;rounded=0;orthogonalLoop=1;jettySize=auto;html=1;exitX=0.5;exitY=1;exitDx=0;exitDy=0;entryX=0.5;entryY=0;entryDx=0;entryDy=0;" parent="1" source="SLmvfLO-0fDUO9Z2AGR4-5" target="SLmvfLO-0fDUO9Z2AGR4-27" edge="1">
          <mxGeometry relative="1" as="geometry">
            <Array as="points">
              <mxPoint x="3040" y="510"/>
              <mxPoint x="2870" y="510"/>
            </Array>
          </mxGeometry>
        </mxCell>
        <mxCell id="SLmvfLO-0fDUO9Z2AGR4-33" style="edgeStyle=orthogonalEdgeStyle;rounded=0;orthogonalLoop=1;jettySize=auto;html=1;exitX=0.5;exitY=1;exitDx=0;exitDy=0;entryX=0.575;entryY=0.017;entryDx=0;entryDy=0;entryPerimeter=0;" parent="1" source="SLmvfLO-0fDUO9Z2AGR4-5" target="SLmvfLO-0fDUO9Z2AGR4-28" edge="1">
          <mxGeometry relative="1" as="geometry">
            <Array as="points">
              <mxPoint x="3040" y="510"/>
              <mxPoint x="3059" y="510"/>
            </Array>
          </mxGeometry>
        </mxCell>
        <mxCell id="SLmvfLO-0fDUO9Z2AGR4-38" style="edgeStyle=orthogonalEdgeStyle;rounded=0;orthogonalLoop=1;jettySize=auto;html=1;exitX=0.5;exitY=1;exitDx=0;exitDy=0;entryX=0.5;entryY=0;entryDx=0;entryDy=0;" parent="1" source="SLmvfLO-0fDUO9Z2AGR4-5" target="SLmvfLO-0fDUO9Z2AGR4-30" edge="1">
          <mxGeometry relative="1" as="geometry">
            <Array as="points">
              <mxPoint x="3040" y="510"/>
              <mxPoint x="3320" y="510"/>
              <mxPoint x="3320" y="550"/>
              <mxPoint x="3430" y="550"/>
            </Array>
          </mxGeometry>
        </mxCell>
        <mxCell id="SLmvfLO-0fDUO9Z2AGR4-46" style="edgeStyle=orthogonalEdgeStyle;rounded=0;orthogonalLoop=1;jettySize=auto;html=1;exitX=0;exitY=0.5;exitDx=0;exitDy=0;" parent="1" source="SLmvfLO-0fDUO9Z2AGR4-5" target="SLmvfLO-0fDUO9Z2AGR4-22" edge="1">
          <mxGeometry relative="1" as="geometry">
            <Array as="points">
              <mxPoint x="2141" y="430"/>
              <mxPoint x="2141" y="500"/>
              <mxPoint x="2011" y="500"/>
            </Array>
          </mxGeometry>
        </mxCell>
        <mxCell id="SLmvfLO-0fDUO9Z2AGR4-47" style="edgeStyle=orthogonalEdgeStyle;rounded=0;orthogonalLoop=1;jettySize=auto;html=1;exitX=0;exitY=0.5;exitDx=0;exitDy=0;entryX=0.5;entryY=0;entryDx=0;entryDy=0;" parent="1" source="SLmvfLO-0fDUO9Z2AGR4-5" target="SLmvfLO-0fDUO9Z2AGR4-23" edge="1">
          <mxGeometry relative="1" as="geometry">
            <Array as="points">
              <mxPoint x="2140" y="430"/>
              <mxPoint x="2140" y="500"/>
              <mxPoint x="2460" y="500"/>
              <mxPoint x="2460" y="550"/>
              <mxPoint x="2190" y="550"/>
            </Array>
          </mxGeometry>
        </mxCell>
        <mxCell id="SLmvfLO-0fDUO9Z2AGR4-48" style="edgeStyle=orthogonalEdgeStyle;rounded=0;orthogonalLoop=1;jettySize=auto;html=1;exitX=0;exitY=0.5;exitDx=0;exitDy=0;entryX=0.5;entryY=0;entryDx=0;entryDy=0;" parent="1" source="SLmvfLO-0fDUO9Z2AGR4-5" target="SLmvfLO-0fDUO9Z2AGR4-21" edge="1">
          <mxGeometry relative="1" as="geometry">
            <Array as="points">
              <mxPoint x="2140" y="430"/>
              <mxPoint x="2140" y="500"/>
              <mxPoint x="1730" y="500"/>
              <mxPoint x="1730" y="550"/>
              <mxPoint x="1810" y="550"/>
            </Array>
          </mxGeometry>
        </mxCell>
        <mxCell id="SLmvfLO-0fDUO9Z2AGR4-49" style="edgeStyle=orthogonalEdgeStyle;rounded=0;orthogonalLoop=1;jettySize=auto;html=1;exitX=0;exitY=0.5;exitDx=0;exitDy=0;" parent="1" source="SLmvfLO-0fDUO9Z2AGR4-5" target="SLmvfLO-0fDUO9Z2AGR4-24" edge="1">
          <mxGeometry relative="1" as="geometry">
            <Array as="points">
              <mxPoint x="2140" y="430"/>
              <mxPoint x="2140" y="500"/>
              <mxPoint x="2460" y="500"/>
              <mxPoint x="2460" y="550"/>
              <mxPoint x="2370" y="550"/>
            </Array>
          </mxGeometry>
        </mxCell>
        <mxCell id="SLmvfLO-0fDUO9Z2AGR4-50" style="edgeStyle=orthogonalEdgeStyle;rounded=0;orthogonalLoop=1;jettySize=auto;html=1;exitX=0;exitY=0.5;exitDx=0;exitDy=0;entryX=0.5;entryY=0;entryDx=0;entryDy=0;startArrow=diamond;startFill=1;" parent="1" source="SLmvfLO-0fDUO9Z2AGR4-5" target="SLmvfLO-0fDUO9Z2AGR4-25" edge="1">
          <mxGeometry relative="1" as="geometry">
            <Array as="points">
              <mxPoint x="2140" y="430"/>
              <mxPoint x="2140" y="500"/>
              <mxPoint x="2460" y="500"/>
              <mxPoint x="2460" y="550"/>
              <mxPoint x="2530" y="550"/>
            </Array>
          </mxGeometry>
        </mxCell>
        <mxCell id="SLmvfLO-0fDUO9Z2AGR4-5" value="NYX&lt;br&gt;(night)" style="rounded=0;whiteSpace=wrap;html=1;fillColor=#fff2cc;strokeColor=#d6b656;" parent="1" vertex="1">
          <mxGeometry x="2980" y="400" width="120" height="60" as="geometry"/>
        </mxCell>
        <mxCell id="SLmvfLO-0fDUO9Z2AGR4-78" style="edgeStyle=orthogonalEdgeStyle;rounded=0;orthogonalLoop=1;jettySize=auto;html=1;exitX=0;exitY=0.5;exitDx=0;exitDy=0;entryX=0.5;entryY=0;entryDx=0;entryDy=0;" parent="1" source="SLmvfLO-0fDUO9Z2AGR4-10" target="SLmvfLO-0fDUO9Z2AGR4-62" edge="1">
          <mxGeometry relative="1" as="geometry">
            <Array as="points">
              <mxPoint x="-520" y="610"/>
              <mxPoint x="-860" y="610"/>
              <mxPoint x="-860" y="700"/>
              <mxPoint x="-3890" y="700"/>
            </Array>
          </mxGeometry>
        </mxCell>
        <mxCell id="SLmvfLO-0fDUO9Z2AGR4-79" style="edgeStyle=orthogonalEdgeStyle;rounded=0;orthogonalLoop=1;jettySize=auto;html=1;exitX=0;exitY=0.5;exitDx=0;exitDy=0;entryX=0.5;entryY=0;entryDx=0;entryDy=0;" parent="1" source="SLmvfLO-0fDUO9Z2AGR4-10" target="SLmvfLO-0fDUO9Z2AGR4-61" edge="1">
          <mxGeometry relative="1" as="geometry">
            <Array as="points">
              <mxPoint x="-520" y="610"/>
              <mxPoint x="-860" y="610"/>
              <mxPoint x="-860" y="700"/>
              <mxPoint x="-3730" y="700"/>
            </Array>
          </mxGeometry>
        </mxCell>
        <mxCell id="SLmvfLO-0fDUO9Z2AGR4-80" style="edgeStyle=orthogonalEdgeStyle;rounded=0;orthogonalLoop=1;jettySize=auto;html=1;exitX=0;exitY=0.5;exitDx=0;exitDy=0;" parent="1" source="SLmvfLO-0fDUO9Z2AGR4-10" target="SLmvfLO-0fDUO9Z2AGR4-60" edge="1">
          <mxGeometry relative="1" as="geometry">
            <Array as="points">
              <mxPoint x="-860" y="608"/>
              <mxPoint x="-860" y="700"/>
              <mxPoint x="-720" y="700"/>
            </Array>
          </mxGeometry>
        </mxCell>
        <mxCell id="SLmvfLO-0fDUO9Z2AGR4-81" style="edgeStyle=orthogonalEdgeStyle;rounded=0;orthogonalLoop=1;jettySize=auto;html=1;exitX=0;exitY=0.5;exitDx=0;exitDy=0;entryX=0.5;entryY=0;entryDx=0;entryDy=0;" parent="1" source="SLmvfLO-0fDUO9Z2AGR4-10" target="SLmvfLO-0fDUO9Z2AGR4-59" edge="1">
          <mxGeometry relative="1" as="geometry">
            <Array as="points">
              <mxPoint x="-860" y="608"/>
              <mxPoint x="-860" y="700"/>
              <mxPoint x="-960" y="700"/>
            </Array>
          </mxGeometry>
        </mxCell>
        <mxCell id="SLmvfLO-0fDUO9Z2AGR4-82" style="edgeStyle=orthogonalEdgeStyle;rounded=0;orthogonalLoop=1;jettySize=auto;html=1;exitX=0;exitY=0.5;exitDx=0;exitDy=0;" parent="1" source="SLmvfLO-0fDUO9Z2AGR4-10" target="SLmvfLO-0fDUO9Z2AGR4-66" edge="1">
          <mxGeometry relative="1" as="geometry">
            <Array as="points">
              <mxPoint x="-860" y="608"/>
              <mxPoint x="-860" y="700"/>
              <mxPoint x="-1190" y="700"/>
            </Array>
          </mxGeometry>
        </mxCell>
        <mxCell id="SLmvfLO-0fDUO9Z2AGR4-83" style="edgeStyle=orthogonalEdgeStyle;rounded=0;orthogonalLoop=1;jettySize=auto;html=1;exitX=0;exitY=0.5;exitDx=0;exitDy=0;" parent="1" source="SLmvfLO-0fDUO9Z2AGR4-10" target="SLmvfLO-0fDUO9Z2AGR4-64" edge="1">
          <mxGeometry relative="1" as="geometry">
            <Array as="points">
              <mxPoint x="-860" y="608"/>
              <mxPoint x="-860" y="700"/>
              <mxPoint x="-3370" y="700"/>
            </Array>
          </mxGeometry>
        </mxCell>
        <mxCell id="SLmvfLO-0fDUO9Z2AGR4-84" style="edgeStyle=orthogonalEdgeStyle;rounded=0;orthogonalLoop=1;jettySize=auto;html=1;exitX=0;exitY=0.5;exitDx=0;exitDy=0;" parent="1" source="SLmvfLO-0fDUO9Z2AGR4-10" target="SLmvfLO-0fDUO9Z2AGR4-65" edge="1">
          <mxGeometry relative="1" as="geometry">
            <Array as="points">
              <mxPoint x="-860" y="608"/>
              <mxPoint x="-860" y="700"/>
              <mxPoint x="-3530" y="700"/>
            </Array>
          </mxGeometry>
        </mxCell>
        <mxCell id="SLmvfLO-0fDUO9Z2AGR4-85" style="edgeStyle=orthogonalEdgeStyle;rounded=0;orthogonalLoop=1;jettySize=auto;html=1;exitX=0;exitY=0.5;exitDx=0;exitDy=0;entryX=0.5;entryY=0;entryDx=0;entryDy=0;" parent="1" source="SLmvfLO-0fDUO9Z2AGR4-10" target="SLmvfLO-0fDUO9Z2AGR4-63" edge="1">
          <mxGeometry relative="1" as="geometry">
            <Array as="points">
              <mxPoint x="-860" y="607"/>
              <mxPoint x="-860" y="700"/>
              <mxPoint x="-1400" y="700"/>
            </Array>
          </mxGeometry>
        </mxCell>
        <mxCell id="SLmvfLO-0fDUO9Z2AGR4-86" style="edgeStyle=orthogonalEdgeStyle;rounded=0;orthogonalLoop=1;jettySize=auto;html=1;exitX=0;exitY=0.5;exitDx=0;exitDy=0;" parent="1" source="SLmvfLO-0fDUO9Z2AGR4-10" target="SLmvfLO-0fDUO9Z2AGR4-67" edge="1">
          <mxGeometry relative="1" as="geometry">
            <Array as="points">
              <mxPoint x="-860" y="607"/>
              <mxPoint x="-860" y="700"/>
              <mxPoint x="-1560" y="700"/>
            </Array>
          </mxGeometry>
        </mxCell>
        <mxCell id="SLmvfLO-0fDUO9Z2AGR4-87" style="edgeStyle=orthogonalEdgeStyle;rounded=0;orthogonalLoop=1;jettySize=auto;html=1;exitX=0;exitY=0.5;exitDx=0;exitDy=0;entryX=0.5;entryY=0;entryDx=0;entryDy=0;" parent="1" source="SLmvfLO-0fDUO9Z2AGR4-10" target="SLmvfLO-0fDUO9Z2AGR4-70" edge="1">
          <mxGeometry relative="1" as="geometry">
            <Array as="points">
              <mxPoint x="-860" y="607"/>
              <mxPoint x="-860" y="700"/>
              <mxPoint x="-1760" y="700"/>
            </Array>
          </mxGeometry>
        </mxCell>
        <mxCell id="SLmvfLO-0fDUO9Z2AGR4-88" style="edgeStyle=orthogonalEdgeStyle;rounded=0;orthogonalLoop=1;jettySize=auto;html=1;exitX=0;exitY=0.5;exitDx=0;exitDy=0;" parent="1" source="SLmvfLO-0fDUO9Z2AGR4-10" target="SLmvfLO-0fDUO9Z2AGR4-68" edge="1">
          <mxGeometry relative="1" as="geometry">
            <Array as="points">
              <mxPoint x="-860" y="607"/>
              <mxPoint x="-860" y="700"/>
              <mxPoint x="-1960" y="700"/>
            </Array>
          </mxGeometry>
        </mxCell>
        <mxCell id="SLmvfLO-0fDUO9Z2AGR4-89" style="edgeStyle=orthogonalEdgeStyle;rounded=0;orthogonalLoop=1;jettySize=auto;html=1;exitX=0;exitY=0.5;exitDx=0;exitDy=0;" parent="1" source="SLmvfLO-0fDUO9Z2AGR4-10" target="SLmvfLO-0fDUO9Z2AGR4-69" edge="1">
          <mxGeometry relative="1" as="geometry">
            <Array as="points">
              <mxPoint x="-860" y="607"/>
              <mxPoint x="-860" y="700"/>
              <mxPoint x="-2160" y="700"/>
            </Array>
          </mxGeometry>
        </mxCell>
        <mxCell id="SLmvfLO-0fDUO9Z2AGR4-90" style="edgeStyle=orthogonalEdgeStyle;rounded=0;orthogonalLoop=1;jettySize=auto;html=1;exitX=0;exitY=0.5;exitDx=0;exitDy=0;" parent="1" source="SLmvfLO-0fDUO9Z2AGR4-10" target="SLmvfLO-0fDUO9Z2AGR4-72" edge="1">
          <mxGeometry relative="1" as="geometry">
            <Array as="points">
              <mxPoint x="-860" y="607"/>
              <mxPoint x="-860" y="700"/>
              <mxPoint x="-2529" y="700"/>
              <mxPoint x="-2529" y="730"/>
              <mxPoint x="-2369" y="730"/>
            </Array>
          </mxGeometry>
        </mxCell>
        <mxCell id="SLmvfLO-0fDUO9Z2AGR4-91" style="edgeStyle=orthogonalEdgeStyle;rounded=0;orthogonalLoop=1;jettySize=auto;html=1;exitX=0;exitY=0.5;exitDx=0;exitDy=0;entryX=0.5;entryY=0;entryDx=0;entryDy=0;" parent="1" source="SLmvfLO-0fDUO9Z2AGR4-10" target="SLmvfLO-0fDUO9Z2AGR4-73" edge="1">
          <mxGeometry relative="1" as="geometry">
            <Array as="points">
              <mxPoint x="-860" y="607"/>
              <mxPoint x="-860" y="700"/>
              <mxPoint x="-2529" y="700"/>
              <mxPoint x="-2529" y="730"/>
              <mxPoint x="-2520" y="730"/>
            </Array>
          </mxGeometry>
        </mxCell>
        <mxCell id="SLmvfLO-0fDUO9Z2AGR4-92" style="edgeStyle=orthogonalEdgeStyle;rounded=0;orthogonalLoop=1;jettySize=auto;html=1;exitX=0;exitY=0.5;exitDx=0;exitDy=0;" parent="1" source="SLmvfLO-0fDUO9Z2AGR4-10" target="SLmvfLO-0fDUO9Z2AGR4-74" edge="1">
          <mxGeometry relative="1" as="geometry">
            <Array as="points">
              <mxPoint x="-860" y="607"/>
              <mxPoint x="-860" y="700"/>
              <mxPoint x="-2529" y="700"/>
              <mxPoint x="-2529" y="730"/>
              <mxPoint x="-2669" y="730"/>
            </Array>
          </mxGeometry>
        </mxCell>
        <mxCell id="SLmvfLO-0fDUO9Z2AGR4-93" style="edgeStyle=orthogonalEdgeStyle;rounded=0;orthogonalLoop=1;jettySize=auto;html=1;exitX=0;exitY=0.5;exitDx=0;exitDy=0;" parent="1" source="SLmvfLO-0fDUO9Z2AGR4-10" target="SLmvfLO-0fDUO9Z2AGR4-75" edge="1">
          <mxGeometry relative="1" as="geometry">
            <Array as="points">
              <mxPoint x="-860" y="607"/>
              <mxPoint x="-860" y="700"/>
              <mxPoint x="-3069" y="700"/>
              <mxPoint x="-3069" y="730"/>
              <mxPoint x="-2900" y="730"/>
            </Array>
          </mxGeometry>
        </mxCell>
        <mxCell id="SLmvfLO-0fDUO9Z2AGR4-94" style="edgeStyle=orthogonalEdgeStyle;rounded=0;orthogonalLoop=1;jettySize=auto;html=1;exitX=0;exitY=0.5;exitDx=0;exitDy=0;entryX=0.5;entryY=0;entryDx=0;entryDy=0;" parent="1" source="SLmvfLO-0fDUO9Z2AGR4-10" target="SLmvfLO-0fDUO9Z2AGR4-76" edge="1">
          <mxGeometry relative="1" as="geometry">
            <Array as="points">
              <mxPoint x="-860" y="607"/>
              <mxPoint x="-860" y="700"/>
              <mxPoint x="-3069" y="700"/>
              <mxPoint x="-3069" y="730"/>
              <mxPoint x="-3049" y="730"/>
            </Array>
          </mxGeometry>
        </mxCell>
        <mxCell id="SLmvfLO-0fDUO9Z2AGR4-95" style="edgeStyle=orthogonalEdgeStyle;rounded=0;orthogonalLoop=1;jettySize=auto;html=1;exitX=0;exitY=0.5;exitDx=0;exitDy=0;" parent="1" source="SLmvfLO-0fDUO9Z2AGR4-10" target="SLmvfLO-0fDUO9Z2AGR4-77" edge="1">
          <mxGeometry relative="1" as="geometry">
            <Array as="points">
              <mxPoint x="-860" y="607"/>
              <mxPoint x="-860" y="700"/>
              <mxPoint x="-3069" y="700"/>
              <mxPoint x="-3069" y="730"/>
              <mxPoint x="-3200" y="730"/>
            </Array>
          </mxGeometry>
        </mxCell>
        <mxCell id="SLmvfLO-0fDUO9Z2AGR4-10" value="OURANOS&lt;br&gt;(sky)" style="rounded=0;whiteSpace=wrap;html=1;fillColor=#d5e8d4;strokeColor=#82b366;" parent="1" vertex="1">
          <mxGeometry x="-520" y="577" width="120" height="60" as="geometry"/>
        </mxCell>
        <mxCell id="SLmvfLO-0fDUO9Z2AGR4-101" style="edgeStyle=orthogonalEdgeStyle;rounded=0;orthogonalLoop=1;jettySize=auto;html=1;exitX=1;exitY=0.5;exitDx=0;exitDy=0;" parent="1" source="SLmvfLO-0fDUO9Z2AGR4-11" target="SLmvfLO-0fDUO9Z2AGR4-71" edge="1">
          <mxGeometry relative="1" as="geometry">
            <Array as="points">
              <mxPoint x="-10" y="607"/>
            </Array>
          </mxGeometry>
        </mxCell>
        <mxCell id="SLmvfLO-0fDUO9Z2AGR4-11" value="PONTUS&lt;br&gt;(sea)" style="rounded=0;whiteSpace=wrap;html=1;fillColor=#d5e8d4;strokeColor=#82b366;" parent="1" vertex="1">
          <mxGeometry x="-240" y="577" width="120" height="60" as="geometry"/>
        </mxCell>
        <mxCell id="SLmvfLO-0fDUO9Z2AGR4-53" style="edgeStyle=orthogonalEdgeStyle;rounded=0;orthogonalLoop=1;jettySize=auto;html=1;exitX=1;exitY=0.5;exitDx=0;exitDy=0;startArrow=diamond;startFill=1;" parent="1" source="SLmvfLO-0fDUO9Z2AGR4-14" target="SLmvfLO-0fDUO9Z2AGR4-52" edge="1">
          <mxGeometry relative="1" as="geometry"/>
        </mxCell>
        <mxCell id="SLmvfLO-0fDUO9Z2AGR4-14" value="AETHER&lt;br&gt;(lightness)" style="rounded=0;whiteSpace=wrap;html=1;" parent="1" vertex="1">
          <mxGeometry x="440" y="580" width="120" height="60" as="geometry"/>
        </mxCell>
        <mxCell id="SLmvfLO-0fDUO9Z2AGR4-54" style="edgeStyle=orthogonalEdgeStyle;rounded=0;orthogonalLoop=1;jettySize=auto;html=1;exitX=0;exitY=0.5;exitDx=0;exitDy=0;entryX=0.5;entryY=0;entryDx=0;entryDy=0;startArrow=diamond;startFill=1;" parent="1" source="SLmvfLO-0fDUO9Z2AGR4-15" target="SLmvfLO-0fDUO9Z2AGR4-52" edge="1">
          <mxGeometry relative="1" as="geometry"/>
        </mxCell>
        <mxCell id="SLmvfLO-0fDUO9Z2AGR4-15" value="HEMERA&lt;br&gt;(day)" style="rounded=0;whiteSpace=wrap;html=1;" parent="1" vertex="1">
          <mxGeometry x="650" y="580" width="120" height="60" as="geometry"/>
        </mxCell>
        <mxCell id="SLmvfLO-0fDUO9Z2AGR4-16" value="ERIS / DISCORDIA&lt;br&gt;(strife)" style="rounded=0;whiteSpace=wrap;html=1;" parent="1" vertex="1">
          <mxGeometry x="827" y="580" width="120" height="60" as="geometry"/>
        </mxCell>
        <mxCell id="SLmvfLO-0fDUO9Z2AGR4-17" value="NEMESIS&lt;br&gt;(retribution)" style="rounded=0;whiteSpace=wrap;html=1;" parent="1" vertex="1">
          <mxGeometry x="1000" y="580" width="120" height="60" as="geometry"/>
        </mxCell>
        <mxCell id="SLmvfLO-0fDUO9Z2AGR4-18" value="CHARON" style="rounded=0;whiteSpace=wrap;html=1;" parent="1" vertex="1">
          <mxGeometry x="1180.5" y="577" width="120" height="60" as="geometry"/>
        </mxCell>
        <mxCell id="SLmvfLO-0fDUO9Z2AGR4-19" value="HYPNOS&lt;br&gt;(sleep)" style="rounded=0;whiteSpace=wrap;html=1;" parent="1" vertex="1">
          <mxGeometry x="1370" y="577" width="120" height="60" as="geometry"/>
        </mxCell>
        <mxCell id="SLmvfLO-0fDUO9Z2AGR4-20" value="PHOBETOR&lt;br&gt;(nightmare)" style="rounded=0;whiteSpace=wrap;html=1;" parent="1" vertex="1">
          <mxGeometry x="1570" y="577" width="120" height="60" as="geometry"/>
        </mxCell>
        <mxCell id="SLmvfLO-0fDUO9Z2AGR4-21" value="PHANTASMOS&lt;br&gt;" style="rounded=0;whiteSpace=wrap;html=1;" parent="1" vertex="1">
          <mxGeometry x="1750" y="580" width="120" height="60" as="geometry"/>
        </mxCell>
        <mxCell id="SLmvfLO-0fDUO9Z2AGR4-22" value="THANATOS / MORS&lt;br&gt;(death)" style="rounded=0;whiteSpace=wrap;html=1;" parent="1" vertex="1">
          <mxGeometry x="1950" y="577" width="120" height="60" as="geometry"/>
        </mxCell>
        <mxCell id="SLmvfLO-0fDUO9Z2AGR4-23" value="" style="rounded=0;whiteSpace=wrap;html=1;fillColor=#fff2cc;strokeColor=#d6b656;" parent="1" vertex="1">
          <mxGeometry x="2130" y="580" width="120" height="60" as="geometry"/>
        </mxCell>
        <mxCell id="SLmvfLO-0fDUO9Z2AGR4-24" value="" style="rounded=0;whiteSpace=wrap;html=1;fillColor=#fff2cc;strokeColor=#d6b656;" parent="1" vertex="1">
          <mxGeometry x="2310" y="577" width="120" height="60" as="geometry"/>
        </mxCell>
        <mxCell id="SLmvfLO-0fDUO9Z2AGR4-25" value="" style="rounded=0;whiteSpace=wrap;html=1;fillColor=#fff2cc;strokeColor=#d6b656;" parent="1" vertex="1">
          <mxGeometry x="2470" y="577" width="120" height="60" as="geometry"/>
        </mxCell>
        <mxCell id="SLmvfLO-0fDUO9Z2AGR4-26" value="MOROS&lt;br&gt;(doom)" style="rounded=0;whiteSpace=wrap;html=1;" parent="1" vertex="1">
          <mxGeometry x="2650" y="577" width="120" height="60" as="geometry"/>
        </mxCell>
        <mxCell id="SLmvfLO-0fDUO9Z2AGR4-27" value="APATE / FRAUS&lt;br&gt;(deceit)" style="rounded=0;whiteSpace=wrap;html=1;" parent="1" vertex="1">
          <mxGeometry x="2810" y="580" width="120" height="60" as="geometry"/>
        </mxCell>
        <mxCell id="SLmvfLO-0fDUO9Z2AGR4-28" value="GERAS / SENECTUS&lt;br&gt;(old age)" style="rounded=0;whiteSpace=wrap;html=1;" parent="1" vertex="1">
          <mxGeometry x="2990" y="580" width="120" height="60" as="geometry"/>
        </mxCell>
        <mxCell id="SLmvfLO-0fDUO9Z2AGR4-29" value="OIZYS / MISERIA&lt;br&gt;(misery)" style="rounded=0;whiteSpace=wrap;html=1;" parent="1" vertex="1">
          <mxGeometry x="3150" y="580" width="120" height="60" as="geometry"/>
        </mxCell>
        <mxCell id="SLmvfLO-0fDUO9Z2AGR4-30" value="MOMOS&lt;br&gt;(mockery)" style="rounded=0;whiteSpace=wrap;html=1;" parent="1" vertex="1">
          <mxGeometry x="3370" y="580" width="120" height="60" as="geometry"/>
        </mxCell>
        <mxCell id="SLmvfLO-0fDUO9Z2AGR4-37" style="edgeStyle=orthogonalEdgeStyle;rounded=0;orthogonalLoop=1;jettySize=auto;html=1;exitX=0.5;exitY=1;exitDx=0;exitDy=0;elbow=vertical;entryX=0.5;entryY=0;entryDx=0;entryDy=0;" parent="1" source="SLmvfLO-0fDUO9Z2AGR4-5" target="SLmvfLO-0fDUO9Z2AGR4-29" edge="1">
          <mxGeometry relative="1" as="geometry">
            <mxPoint x="3040" y="470" as="sourcePoint"/>
            <mxPoint x="3200" y="554" as="targetPoint"/>
            <Array as="points">
              <mxPoint x="3040" y="510"/>
              <mxPoint x="3320" y="510"/>
              <mxPoint x="3320" y="550"/>
              <mxPoint x="3210" y="550"/>
            </Array>
          </mxGeometry>
        </mxCell>
        <mxCell id="SLmvfLO-0fDUO9Z2AGR4-52" value="THALASSA&lt;br&gt;(sea)" style="rounded=0;whiteSpace=wrap;html=1;fillColor=#fff2cc;strokeColor=#d6b656;" parent="1" vertex="1">
          <mxGeometry x="540" y="760" width="120" height="60" as="geometry"/>
        </mxCell>
        <mxCell id="SLmvfLO-0fDUO9Z2AGR4-55" value="ONEROI" style="text;html=1;strokeColor=none;fillColor=none;align=center;verticalAlign=middle;whiteSpace=wrap;rounded=0;" parent="1" vertex="1">
          <mxGeometry x="1680" y="530" width="40" height="20" as="geometry"/>
        </mxCell>
        <mxCell id="SLmvfLO-0fDUO9Z2AGR4-57" value="HESPERIDES" style="text;html=1;strokeColor=none;fillColor=none;align=center;verticalAlign=middle;whiteSpace=wrap;rounded=0;" parent="1" vertex="1">
          <mxGeometry x="2330" y="530" width="40" height="20" as="geometry"/>
        </mxCell>
        <mxCell id="SLmvfLO-0fDUO9Z2AGR4-117" style="edgeStyle=orthogonalEdgeStyle;rounded=0;orthogonalLoop=1;jettySize=auto;html=1;exitX=0;exitY=0.5;exitDx=0;exitDy=0;startArrow=diamond;startFill=1;endArrow=classic;endFill=1;entryX=0.5;entryY=0;entryDx=0;entryDy=0;" parent="1" source="SLmvfLO-0fDUO9Z2AGR4-59" target="SLmvfLO-0fDUO9Z2AGR4-107" edge="1">
          <mxGeometry relative="1" as="geometry">
            <Array as="points">
              <mxPoint x="-1060" y="790"/>
              <mxPoint x="-1060" y="960"/>
              <mxPoint x="-1100" y="960"/>
              <mxPoint x="-1100" y="990"/>
              <mxPoint x="-650" y="990"/>
            </Array>
          </mxGeometry>
        </mxCell>
        <mxCell id="SLmvfLO-0fDUO9Z2AGR4-118" style="edgeStyle=orthogonalEdgeStyle;rounded=0;orthogonalLoop=1;jettySize=auto;html=1;exitX=0;exitY=0.5;exitDx=0;exitDy=0;entryX=0.5;entryY=0;entryDx=0;entryDy=0;startArrow=none;startFill=0;endArrow=classic;endFill=1;" parent="1" source="SLmvfLO-0fDUO9Z2AGR4-59" target="SLmvfLO-0fDUO9Z2AGR4-108" edge="1">
          <mxGeometry relative="1" as="geometry">
            <Array as="points">
              <mxPoint x="-1060" y="790"/>
              <mxPoint x="-1060" y="960"/>
              <mxPoint x="-1100" y="960"/>
              <mxPoint x="-1100" y="990"/>
              <mxPoint x="-490" y="990"/>
            </Array>
          </mxGeometry>
        </mxCell>
        <mxCell id="SLmvfLO-0fDUO9Z2AGR4-119" style="edgeStyle=orthogonalEdgeStyle;rounded=0;orthogonalLoop=1;jettySize=auto;html=1;exitX=0;exitY=0.5;exitDx=0;exitDy=0;entryX=0.5;entryY=0;entryDx=0;entryDy=0;startArrow=none;startFill=0;endArrow=classic;endFill=1;" parent="1" source="SLmvfLO-0fDUO9Z2AGR4-59" target="SLmvfLO-0fDUO9Z2AGR4-104" edge="1">
          <mxGeometry relative="1" as="geometry">
            <Array as="points">
              <mxPoint x="-1060" y="790"/>
              <mxPoint x="-1060" y="960"/>
              <mxPoint x="-80" y="960"/>
              <mxPoint x="-80" y="990"/>
              <mxPoint x="-152" y="990"/>
            </Array>
          </mxGeometry>
        </mxCell>
        <mxCell id="SLmvfLO-0fDUO9Z2AGR4-120" style="edgeStyle=orthogonalEdgeStyle;rounded=0;orthogonalLoop=1;jettySize=auto;html=1;exitX=0;exitY=0.5;exitDx=0;exitDy=0;startArrow=none;startFill=0;endArrow=none;endFill=0;" parent="1" source="SLmvfLO-0fDUO9Z2AGR4-59" edge="1">
          <mxGeometry relative="1" as="geometry">
            <mxPoint y="1040" as="targetPoint"/>
            <Array as="points">
              <mxPoint x="-1060" y="790"/>
              <mxPoint x="-1060" y="960"/>
              <mxPoint x="-80" y="960"/>
              <mxPoint x="-80" y="990"/>
              <mxPoint y="990"/>
            </Array>
          </mxGeometry>
        </mxCell>
        <mxCell id="SLmvfLO-0fDUO9Z2AGR4-59" value="1 OCEANUS&lt;br&gt;(tides and currents)" style="rounded=0;whiteSpace=wrap;html=1;fillColor=#d5e8d4;strokeColor=#82b366;" parent="1" vertex="1">
          <mxGeometry x="-1020" y="760" width="120" height="60" as="geometry"/>
        </mxCell>
        <mxCell id="SLmvfLO-0fDUO9Z2AGR4-102" style="edgeStyle=orthogonalEdgeStyle;rounded=0;orthogonalLoop=1;jettySize=auto;html=1;exitX=1;exitY=0.5;exitDx=0;exitDy=0;startArrow=diamond;startFill=1;endArrow=none;endFill=0;" parent="1" source="SLmvfLO-0fDUO9Z2AGR4-60" edge="1">
          <mxGeometry relative="1" as="geometry">
            <mxPoint x="-600" y="880" as="targetPoint"/>
            <Array as="points">
              <mxPoint x="-600" y="790"/>
              <mxPoint x="-600" y="880"/>
            </Array>
          </mxGeometry>
        </mxCell>
        <mxCell id="SLmvfLO-0fDUO9Z2AGR4-60" value="9 CRIUS" style="rounded=0;whiteSpace=wrap;html=1;fillColor=#d5e8d4;strokeColor=#82b366;" parent="1" vertex="1">
          <mxGeometry x="-790" y="760" width="120" height="60" as="geometry"/>
        </mxCell>
        <mxCell id="SLmvfLO-0fDUO9Z2AGR4-61" value="11 RHEA" style="rounded=0;whiteSpace=wrap;html=1;fillColor=#fff2cc;strokeColor=#d6b656;" parent="1" vertex="1">
          <mxGeometry x="-3790" y="760" width="120" height="60" as="geometry"/>
        </mxCell>
        <mxCell id="SLmvfLO-0fDUO9Z2AGR4-62" value="12 KRONOS" style="rounded=0;whiteSpace=wrap;html=1;fillColor=#d5e8d4;strokeColor=#82b366;" parent="1" vertex="1">
          <mxGeometry x="-3950" y="760" width="120" height="60" as="geometry"/>
        </mxCell>
        <mxCell id="SLmvfLO-0fDUO9Z2AGR4-139" style="edgeStyle=orthogonalEdgeStyle;rounded=0;orthogonalLoop=1;jettySize=auto;html=1;exitX=1;exitY=0.5;exitDx=0;exitDy=0;entryX=0.5;entryY=0;entryDx=0;entryDy=0;startArrow=diamond;startFill=1;endArrow=classic;endFill=1;" parent="1" source="SLmvfLO-0fDUO9Z2AGR4-63" target="SLmvfLO-0fDUO9Z2AGR4-136" edge="1">
          <mxGeometry relative="1" as="geometry">
            <Array as="points">
              <mxPoint x="-1320" y="790"/>
              <mxPoint x="-1320" y="1070"/>
              <mxPoint x="-1300" y="1070"/>
              <mxPoint x="-1300" y="1190"/>
              <mxPoint x="-1530" y="1190"/>
            </Array>
          </mxGeometry>
        </mxCell>
        <mxCell id="SLmvfLO-0fDUO9Z2AGR4-63" value="10 IAPETUS" style="rounded=0;whiteSpace=wrap;html=1;fillColor=#d5e8d4;strokeColor=#82b366;" parent="1" vertex="1">
          <mxGeometry x="-1460" y="760" width="120" height="60" as="geometry"/>
        </mxCell>
        <mxCell id="SLmvfLO-0fDUO9Z2AGR4-64" value="8 THEMIS&lt;br&gt;(justice and wise counsel)" style="rounded=0;whiteSpace=wrap;html=1;fillColor=#fff2cc;strokeColor=#d6b656;" parent="1" vertex="1">
          <mxGeometry x="-3430" y="760" width="120" height="60" as="geometry"/>
        </mxCell>
        <mxCell id="SLmvfLO-0fDUO9Z2AGR4-65" value="3 MNEMOSYNE&lt;br&gt;(memory)" style="rounded=0;whiteSpace=wrap;html=1;fillColor=#fff2cc;strokeColor=#d6b656;" parent="1" vertex="1">
          <mxGeometry x="-3590" y="760" width="120" height="60" as="geometry"/>
        </mxCell>
        <mxCell id="SLmvfLO-0fDUO9Z2AGR4-113" style="edgeStyle=orthogonalEdgeStyle;rounded=0;orthogonalLoop=1;jettySize=auto;html=1;exitX=1;exitY=0.5;exitDx=0;exitDy=0;startArrow=diamond;startFill=1;endArrow=classic;endFill=1;entryX=0.5;entryY=0;entryDx=0;entryDy=0;" parent="1" source="SLmvfLO-0fDUO9Z2AGR4-66" target="SLmvfLO-0fDUO9Z2AGR4-111" edge="1">
          <mxGeometry relative="1" as="geometry">
            <Array as="points">
              <mxPoint x="-1060" y="790"/>
              <mxPoint x="-1060" y="960"/>
              <mxPoint x="-1100" y="960"/>
              <mxPoint x="-1100" y="990"/>
              <mxPoint x="-1210" y="990"/>
            </Array>
          </mxGeometry>
        </mxCell>
        <mxCell id="SLmvfLO-0fDUO9Z2AGR4-114" style="edgeStyle=orthogonalEdgeStyle;rounded=0;orthogonalLoop=1;jettySize=auto;html=1;exitX=1;exitY=0.5;exitDx=0;exitDy=0;entryX=0.5;entryY=0;entryDx=0;entryDy=0;startArrow=none;startFill=0;endArrow=classic;endFill=1;" parent="1" source="SLmvfLO-0fDUO9Z2AGR4-66" target="SLmvfLO-0fDUO9Z2AGR4-110" edge="1">
          <mxGeometry relative="1" as="geometry">
            <Array as="points">
              <mxPoint x="-1060" y="790"/>
              <mxPoint x="-1060" y="960"/>
              <mxPoint x="-1100" y="960"/>
              <mxPoint x="-1100" y="990"/>
              <mxPoint x="-1070" y="990"/>
            </Array>
          </mxGeometry>
        </mxCell>
        <mxCell id="SLmvfLO-0fDUO9Z2AGR4-115" style="edgeStyle=orthogonalEdgeStyle;rounded=0;orthogonalLoop=1;jettySize=auto;html=1;exitX=1;exitY=0.5;exitDx=0;exitDy=0;startArrow=none;startFill=0;endArrow=classic;endFill=1;entryX=0.5;entryY=0;entryDx=0;entryDy=0;" parent="1" source="SLmvfLO-0fDUO9Z2AGR4-66" target="SLmvfLO-0fDUO9Z2AGR4-109" edge="1">
          <mxGeometry relative="1" as="geometry">
            <Array as="points">
              <mxPoint x="-1060" y="790"/>
              <mxPoint x="-1060" y="960"/>
              <mxPoint x="-1100" y="960"/>
              <mxPoint x="-1100" y="990"/>
              <mxPoint x="-930" y="990"/>
            </Array>
          </mxGeometry>
        </mxCell>
        <mxCell id="SLmvfLO-0fDUO9Z2AGR4-116" style="edgeStyle=orthogonalEdgeStyle;rounded=0;orthogonalLoop=1;jettySize=auto;html=1;exitX=1;exitY=0.5;exitDx=0;exitDy=0;startArrow=none;startFill=0;endArrow=classic;endFill=1;entryX=0.5;entryY=0;entryDx=0;entryDy=0;" parent="1" source="SLmvfLO-0fDUO9Z2AGR4-66" target="SLmvfLO-0fDUO9Z2AGR4-106" edge="1">
          <mxGeometry relative="1" as="geometry">
            <Array as="points">
              <mxPoint x="-1060" y="790"/>
              <mxPoint x="-1060" y="960"/>
              <mxPoint x="-1100" y="960"/>
              <mxPoint x="-1100" y="990"/>
              <mxPoint x="-790" y="990"/>
            </Array>
          </mxGeometry>
        </mxCell>
        <mxCell id="SLmvfLO-0fDUO9Z2AGR4-66" value="2 TETHYS" style="rounded=0;whiteSpace=wrap;html=1;fillColor=#fff2cc;strokeColor=#d6b656;" parent="1" vertex="1">
          <mxGeometry x="-1250" y="760" width="120" height="60" as="geometry"/>
        </mxCell>
        <mxCell id="SLmvfLO-0fDUO9Z2AGR4-130" style="edgeStyle=orthogonalEdgeStyle;rounded=0;orthogonalLoop=1;jettySize=auto;html=1;exitX=0;exitY=0.5;exitDx=0;exitDy=0;startArrow=diamond;startFill=1;endArrow=classic;endFill=1;" parent="1" source="SLmvfLO-0fDUO9Z2AGR4-67" target="SLmvfLO-0fDUO9Z2AGR4-125" edge="1">
          <mxGeometry relative="1" as="geometry">
            <Array as="points">
              <mxPoint x="-1660" y="790"/>
              <mxPoint x="-1660" y="960"/>
              <mxPoint x="-1560" y="960"/>
            </Array>
          </mxGeometry>
        </mxCell>
        <mxCell id="SLmvfLO-0fDUO9Z2AGR4-67" value="5 HYPERION" style="rounded=0;whiteSpace=wrap;html=1;fillColor=#d5e8d4;strokeColor=#82b366;" parent="1" vertex="1">
          <mxGeometry x="-1620" y="760" width="120" height="60" as="geometry"/>
        </mxCell>
        <mxCell id="SLmvfLO-0fDUO9Z2AGR4-135" style="edgeStyle=orthogonalEdgeStyle;rounded=0;orthogonalLoop=1;jettySize=auto;html=1;exitX=0;exitY=0.5;exitDx=0;exitDy=0;startArrow=diamond;startFill=1;endArrow=none;endFill=0;" parent="1" source="SLmvfLO-0fDUO9Z2AGR4-68" edge="1">
          <mxGeometry relative="1" as="geometry">
            <mxPoint x="-2060" y="960" as="targetPoint"/>
          </mxGeometry>
        </mxCell>
        <mxCell id="SLmvfLO-0fDUO9Z2AGR4-68" value="7 COEUS" style="rounded=0;whiteSpace=wrap;html=1;fillColor=#d5e8d4;strokeColor=#82b366;" parent="1" vertex="1">
          <mxGeometry x="-2020" y="760" width="120" height="60" as="geometry"/>
        </mxCell>
        <mxCell id="SLmvfLO-0fDUO9Z2AGR4-134" style="edgeStyle=orthogonalEdgeStyle;rounded=0;orthogonalLoop=1;jettySize=auto;html=1;exitX=1;exitY=0.5;exitDx=0;exitDy=0;startArrow=diamond;startFill=1;endArrow=none;endFill=0;" parent="1" source="SLmvfLO-0fDUO9Z2AGR4-69" edge="1">
          <mxGeometry relative="1" as="geometry">
            <mxPoint x="-2060" y="970" as="targetPoint"/>
          </mxGeometry>
        </mxCell>
        <mxCell id="SLmvfLO-0fDUO9Z2AGR4-69" value="6 PHOEBE&lt;br&gt;(gift of prophecy)" style="rounded=0;whiteSpace=wrap;html=1;fillColor=#fff2cc;strokeColor=#d6b656;" parent="1" vertex="1">
          <mxGeometry x="-2220" y="760" width="120" height="60" as="geometry"/>
        </mxCell>
        <mxCell id="SLmvfLO-0fDUO9Z2AGR4-128" style="edgeStyle=orthogonalEdgeStyle;rounded=0;orthogonalLoop=1;jettySize=auto;html=1;exitX=1;exitY=0.5;exitDx=0;exitDy=0;entryX=0.5;entryY=0;entryDx=0;entryDy=0;startArrow=diamond;startFill=1;endArrow=classic;endFill=1;" parent="1" source="SLmvfLO-0fDUO9Z2AGR4-70" target="SLmvfLO-0fDUO9Z2AGR4-127" edge="1">
          <mxGeometry relative="1" as="geometry">
            <Array as="points">
              <mxPoint x="-1660" y="790"/>
              <mxPoint x="-1660" y="960"/>
              <mxPoint x="-1840" y="960"/>
            </Array>
          </mxGeometry>
        </mxCell>
        <mxCell id="SLmvfLO-0fDUO9Z2AGR4-129" style="edgeStyle=orthogonalEdgeStyle;rounded=0;orthogonalLoop=1;jettySize=auto;html=1;exitX=1;exitY=0.5;exitDx=0;exitDy=0;startArrow=none;startFill=0;endArrow=classic;endFill=1;" parent="1" source="SLmvfLO-0fDUO9Z2AGR4-70" target="SLmvfLO-0fDUO9Z2AGR4-126" edge="1">
          <mxGeometry relative="1" as="geometry">
            <Array as="points">
              <mxPoint x="-1660" y="790"/>
              <mxPoint x="-1660" y="960"/>
              <mxPoint x="-1700" y="960"/>
            </Array>
          </mxGeometry>
        </mxCell>
        <mxCell id="SLmvfLO-0fDUO9Z2AGR4-70" value="4 THEIA" style="rounded=0;whiteSpace=wrap;html=1;fillColor=#fff2cc;strokeColor=#d6b656;" parent="1" vertex="1">
          <mxGeometry x="-1820" y="760" width="120" height="60" as="geometry"/>
        </mxCell>
        <mxCell id="SLmvfLO-0fDUO9Z2AGR4-103" style="edgeStyle=orthogonalEdgeStyle;rounded=0;orthogonalLoop=1;jettySize=auto;html=1;exitX=0;exitY=0.5;exitDx=0;exitDy=0;startArrow=diamond;startFill=1;endArrow=none;endFill=0;" parent="1" source="SLmvfLO-0fDUO9Z2AGR4-71" edge="1">
          <mxGeometry relative="1" as="geometry">
            <mxPoint x="-600" y="890" as="targetPoint"/>
            <Array as="points">
              <mxPoint x="-600" y="790"/>
              <mxPoint x="-600" y="890"/>
            </Array>
          </mxGeometry>
        </mxCell>
        <mxCell id="SLmvfLO-0fDUO9Z2AGR4-71" value="EURYBIA&lt;br&gt;(flint hearted)" style="rounded=0;whiteSpace=wrap;html=1;fillColor=#fff2cc;strokeColor=#d6b656;" parent="1" vertex="1">
          <mxGeometry x="-550" y="760" width="120" height="60" as="geometry"/>
        </mxCell>
        <mxCell id="SLmvfLO-0fDUO9Z2AGR4-72" value="1 BRONTES&lt;br&gt;(thunder)" style="rounded=0;whiteSpace=wrap;html=1;" parent="1" vertex="1">
          <mxGeometry x="-2430" y="760" width="120" height="60" as="geometry"/>
        </mxCell>
        <mxCell id="SLmvfLO-0fDUO9Z2AGR4-73" value="2 STEROPES&lt;br&gt;(lightning)" style="rounded=0;whiteSpace=wrap;html=1;" parent="1" vertex="1">
          <mxGeometry x="-2580" y="760" width="120" height="60" as="geometry"/>
        </mxCell>
        <mxCell id="SLmvfLO-0fDUO9Z2AGR4-74" value="3 ARGES&lt;br&gt;(brightness)" style="rounded=0;whiteSpace=wrap;html=1;" parent="1" vertex="1">
          <mxGeometry x="-2730" y="760" width="120" height="60" as="geometry"/>
        </mxCell>
        <mxCell id="SLmvfLO-0fDUO9Z2AGR4-75" value="COTTUS&lt;br&gt;(the furious)" style="rounded=0;whiteSpace=wrap;html=1;" parent="1" vertex="1">
          <mxGeometry x="-2960" y="760" width="120" height="60" as="geometry"/>
        </mxCell>
        <mxCell id="SLmvfLO-0fDUO9Z2AGR4-76" value="GYGES&lt;br&gt;(the long limbed)" style="rounded=0;whiteSpace=wrap;html=1;" parent="1" vertex="1">
          <mxGeometry x="-3110" y="760" width="120" height="60" as="geometry"/>
        </mxCell>
        <mxCell id="SLmvfLO-0fDUO9Z2AGR4-77" value="AEGAEON / BRIAREOS&lt;br&gt;(the sea goat / the vigorous)" style="rounded=0;whiteSpace=wrap;html=1;" parent="1" vertex="1">
          <mxGeometry x="-3260" y="760" width="120" height="60" as="geometry"/>
        </mxCell>
        <mxCell id="SLmvfLO-0fDUO9Z2AGR4-96" value="HECATONCHIRES" style="text;html=1;strokeColor=none;fillColor=none;align=center;verticalAlign=middle;whiteSpace=wrap;rounded=0;" parent="1" vertex="1">
          <mxGeometry x="-3150" y="710" width="40" height="20" as="geometry"/>
        </mxCell>
        <mxCell id="SLmvfLO-0fDUO9Z2AGR4-97" value="CYCLOPES" style="text;html=1;strokeColor=none;fillColor=none;align=center;verticalAlign=middle;whiteSpace=wrap;rounded=0;" parent="1" vertex="1">
          <mxGeometry x="-2490" y="710" width="40" height="20" as="geometry"/>
        </mxCell>
        <mxCell id="SLmvfLO-0fDUO9Z2AGR4-104" value="NILUS&lt;br&gt;(nile)" style="rounded=0;whiteSpace=wrap;html=1;fillColor=#d5e8d4;strokeColor=#82b366;" parent="1" vertex="1">
          <mxGeometry x="-211.14" y="1040" width="120" height="60" as="geometry"/>
        </mxCell>
        <mxCell id="SLmvfLO-0fDUO9Z2AGR4-106" value="AMPHITRITE" style="rounded=0;whiteSpace=wrap;html=1;fillColor=#fff2cc;strokeColor=#d6b656;" parent="1" vertex="1">
          <mxGeometry x="-850" y="1040" width="120" height="60" as="geometry"/>
        </mxCell>
        <mxCell id="SLmvfLO-0fDUO9Z2AGR4-107" value="STYX" style="rounded=0;whiteSpace=wrap;html=1;fillColor=#fff2cc;strokeColor=#d6b656;" parent="1" vertex="1">
          <mxGeometry x="-710" y="1040" width="120" height="60" as="geometry"/>
        </mxCell>
        <mxCell id="SLmvfLO-0fDUO9Z2AGR4-131" style="edgeStyle=orthogonalEdgeStyle;rounded=0;orthogonalLoop=1;jettySize=auto;html=1;exitX=1;exitY=0.5;exitDx=0;exitDy=0;startArrow=diamond;startFill=1;endArrow=none;endFill=0;" parent="1" source="SLmvfLO-0fDUO9Z2AGR4-108" edge="1">
          <mxGeometry relative="1" as="geometry">
            <mxPoint x="-400" y="1250" as="targetPoint"/>
          </mxGeometry>
        </mxCell>
        <mxCell id="SLmvfLO-0fDUO9Z2AGR4-108" value="DORIS" style="rounded=0;whiteSpace=wrap;html=1;fillColor=#fff2cc;strokeColor=#d6b656;" parent="1" vertex="1">
          <mxGeometry x="-550" y="1040" width="120" height="60" as="geometry"/>
        </mxCell>
        <mxCell id="SLmvfLO-0fDUO9Z2AGR4-109" value="CALYPSO" style="rounded=0;whiteSpace=wrap;html=1;fillColor=#fff2cc;strokeColor=#d6b656;" parent="1" vertex="1">
          <mxGeometry x="-990" y="1040" width="120" height="60" as="geometry"/>
        </mxCell>
        <mxCell id="SLmvfLO-0fDUO9Z2AGR4-110" value="METIS&lt;br&gt;(clever and wise)" style="rounded=0;whiteSpace=wrap;html=1;fillColor=#fff2cc;strokeColor=#d6b656;" parent="1" vertex="1">
          <mxGeometry x="-1130" y="1040" width="120" height="60" as="geometry"/>
        </mxCell>
        <mxCell id="SLmvfLO-0fDUO9Z2AGR4-140" style="edgeStyle=orthogonalEdgeStyle;rounded=0;orthogonalLoop=1;jettySize=auto;html=1;exitX=0;exitY=0.5;exitDx=0;exitDy=0;entryX=0.5;entryY=0;entryDx=0;entryDy=0;startArrow=diamond;startFill=1;endArrow=classic;endFill=1;" parent="1" source="SLmvfLO-0fDUO9Z2AGR4-111" target="SLmvfLO-0fDUO9Z2AGR4-137" edge="1">
          <mxGeometry relative="1" as="geometry">
            <Array as="points">
              <mxPoint x="-1300" y="1070"/>
              <mxPoint x="-1300" y="1190"/>
              <mxPoint x="-1370" y="1190"/>
            </Array>
          </mxGeometry>
        </mxCell>
        <mxCell id="SLmvfLO-0fDUO9Z2AGR4-143" style="edgeStyle=orthogonalEdgeStyle;rounded=0;orthogonalLoop=1;jettySize=auto;html=1;exitX=0;exitY=0.5;exitDx=0;exitDy=0;entryX=0.5;entryY=0;entryDx=0;entryDy=0;startArrow=none;startFill=0;endArrow=classic;endFill=1;" parent="1" source="SLmvfLO-0fDUO9Z2AGR4-111" target="SLmvfLO-0fDUO9Z2AGR4-138" edge="1">
          <mxGeometry relative="1" as="geometry">
            <Array as="points">
              <mxPoint x="-1300" y="1070"/>
              <mxPoint x="-1300" y="1190"/>
              <mxPoint x="-1210" y="1190"/>
            </Array>
          </mxGeometry>
        </mxCell>
        <mxCell id="SLmvfLO-0fDUO9Z2AGR4-111" value="CLYMENE" style="rounded=0;whiteSpace=wrap;html=1;fillColor=#fff2cc;strokeColor=#d6b656;" parent="1" vertex="1">
          <mxGeometry x="-1270" y="1040" width="120" height="60" as="geometry"/>
        </mxCell>
        <mxCell id="SLmvfLO-0fDUO9Z2AGR4-132" style="edgeStyle=orthogonalEdgeStyle;rounded=0;orthogonalLoop=1;jettySize=auto;html=1;exitX=0;exitY=0.5;exitDx=0;exitDy=0;startArrow=diamond;startFill=1;endArrow=none;endFill=0;" parent="1" source="SLmvfLO-0fDUO9Z2AGR4-112" edge="1">
          <mxGeometry relative="1" as="geometry">
            <mxPoint x="-400" y="1250" as="targetPoint"/>
          </mxGeometry>
        </mxCell>
        <mxCell id="SLmvfLO-0fDUO9Z2AGR4-112" value="NEREUS&lt;br&gt;(sea god)" style="rounded=0;whiteSpace=wrap;html=1;fillColor=#d5e8d4;strokeColor=#82b366;" parent="1" vertex="1">
          <mxGeometry x="-360" y="1040" width="120" height="60" as="geometry"/>
        </mxCell>
        <mxCell id="SLmvfLO-0fDUO9Z2AGR4-121" value="OCEANIDES (300)" style="text;html=1;strokeColor=none;fillColor=none;align=center;verticalAlign=middle;whiteSpace=wrap;rounded=0;" parent="1" vertex="1">
          <mxGeometry x="-1100" y="970" width="120" height="20" as="geometry"/>
        </mxCell>
        <mxCell id="SLmvfLO-0fDUO9Z2AGR4-122" value="RIVERS" style="text;html=1;strokeColor=none;fillColor=none;align=center;verticalAlign=middle;whiteSpace=wrap;rounded=0;" parent="1" vertex="1">
          <mxGeometry x="-131.1400000000001" y="970" width="40" height="20" as="geometry"/>
        </mxCell>
        <mxCell id="SLmvfLO-0fDUO9Z2AGR4-125" value="EOS&lt;br&gt;(dawn)" style="rounded=0;whiteSpace=wrap;html=1;" parent="1" vertex="1">
          <mxGeometry x="-1620" y="1040" width="120" height="60" as="geometry"/>
        </mxCell>
        <mxCell id="SLmvfLO-0fDUO9Z2AGR4-126" value="SELENE&lt;br&gt;(moon)" style="rounded=0;whiteSpace=wrap;html=1;" parent="1" vertex="1">
          <mxGeometry x="-1760" y="1040" width="120" height="60" as="geometry"/>
        </mxCell>
        <mxCell id="SLmvfLO-0fDUO9Z2AGR4-127" value="HELIOS&lt;br&gt;(sun)" style="rounded=0;whiteSpace=wrap;html=1;" parent="1" vertex="1">
          <mxGeometry x="-1900" y="1040" width="120" height="60" as="geometry"/>
        </mxCell>
        <mxCell id="SLmvfLO-0fDUO9Z2AGR4-133" value="NEREIDES" style="text;html=1;strokeColor=none;fillColor=none;align=center;verticalAlign=middle;whiteSpace=wrap;rounded=0;" parent="1" vertex="1">
          <mxGeometry x="-420" y="1250" width="40" height="20" as="geometry"/>
        </mxCell>
        <mxCell id="SLmvfLO-0fDUO9Z2AGR4-136" value="ATLAS" style="rounded=0;whiteSpace=wrap;html=1;fillColor=#d5e8d4;strokeColor=#82b366;" parent="1" vertex="1">
          <mxGeometry x="-1590" y="1270" width="120" height="60" as="geometry"/>
        </mxCell>
        <mxCell id="SLmvfLO-0fDUO9Z2AGR4-137" value="EPIMETHEUS" style="rounded=0;whiteSpace=wrap;html=1;fillColor=#d5e8d4;strokeColor=#82b366;" parent="1" vertex="1">
          <mxGeometry x="-1430" y="1270" width="120" height="60" as="geometry"/>
        </mxCell>
        <mxCell id="SLmvfLO-0fDUO9Z2AGR4-138" value="PROMETHEUS" style="rounded=0;whiteSpace=wrap;html=1;fillColor=#d5e8d4;strokeColor=#82b366;" parent="1" vertex="1">
          <mxGeometry x="-1270" y="1270" width="120" height="60" as="geometry"/>
        </mxCell>
        <mxCell id="SLmvfLO-0fDUO9Z2AGR4-144" value="TYPHON" style="rounded=0;whiteSpace=wrap;html=1;" parent="1" vertex="1">
          <mxGeometry x="130" y="577" width="120" height="60" as="geometry"/>
        </mxCell>
      </root>
    </mxGraphModel>
  </diagram>
</mxfile>
